<?xml version="1.0" standalone="no"?>
<!DOCTYPE svg PUBLIC "-//W3C//DTD SVG 20010904//EN"
 "http://www.w3.org/TR/2001/REC-SVG-20010904/DTD/svg10.dtd">
<svg version="1.0" xmlns="http://www.w3.org/2000/svg"
 width="216.000000pt" height="216.000000pt" viewBox="0 0 216.000000 216.000000"
 preserveAspectRatio="xMidYMid meet">
<metadata>
Created by potrace 1.14, written by Peter Selinger 2001-2017
</metadata>
<g transform="translate(0.000000,216.000000) scale(0.100000,-0.100000)"
fill="#000000" stroke="none">
<path d="M897 2134 c-426 -77 -752 -384 -858 -805 -27 -110 -34 -314 -14 -419
46 -234 137 -412 294 -570 138 -139 307 -237 498 -287 132 -34 333 -39 473
-11 443 89 781 443 848 888 9 60 9 252 0 316 -21 140 -90 313 -178 445 -54 81
-185 211 -270 268 -95 65 -235 128 -347 157 -122 32 -325 40 -446 18z"/>
</g>
</svg>
